<svg width="380" height="189" viewBox="0 0 380 189" fill="none" xmlns="http://www.w3.org/2000/svg">
<path fill-rule="evenodd" clip-rule="evenodd" d="M360.59 15.6709C360.59 15.6709 374.805 63.9356 373.81 70.9134C372.814 77.8932 321.214 47.6842 318.457 44.8559" fill="#FEFEFE"/>
<path d="M360.59 15.6709C360.59 15.6709 374.805 63.9356 373.81 70.9134C372.814 77.8932 321.214 47.6842 318.457 44.8559" stroke="#1D1D1B"/>
<path fill-rule="evenodd" clip-rule="evenodd" d="M87.9656 128.406C87.9656 128.406 72.6809 182.174 68.5957 187.858C64.5125 193.542 32.3701 140.374 31.2343 136.555" fill="#FEFEFE"/>
<path d="M88.3701 126.906C88.3701 126.906 73.0975 181.633 69.0155 187.419C64.9355 193.204 32.8185 139.087 31.6836 135.201" stroke="#1D1D1B"/>
<path fill-rule="evenodd" clip-rule="evenodd" d="M273.547 75.6328L270.39 145.284L217.805 102.131" fill="#FEFEFE"/>
<path d="M273.074 75.1504L270.39 145.285L216.388 100.786" stroke="#1D1D1B"/>
<path fill-rule="evenodd" clip-rule="evenodd" d="M184.002 110.666C184.002 110.666 168.084 164.978 165.214 169.844C162.935 173.708 121.526 123.278 121.526 123.278" fill="#FEFEFE"/>
<path d="M183.793 110.461C183.793 110.461 167.906 165.312 165.041 170.225C162.767 174.128 120.965 122.553 120.965 122.553" stroke="#1D1D1B"/>
<path d="M380 1C380 1 303.91 57.1044 265.311 79.5146C215.703 108.316 139.308 119.936 139.308 119.936L4.06179 138.552L-57 145.786" stroke="#1D1D1B"/>
<path d="M68.5306 187.468C68.5306 187.468 70.5981 189.524 75.4242 184.106C80.2503 178.687 93.3504 131.723 94.0396 126.906" stroke="#1D1D1B"/>
<path d="M188.517 109.492C188.517 109.492 169.746 166.752 168.868 167.68C165.98 170.732 164.898 170.429 164.898 170.429" stroke="#1D1D1B"/>
<path d="M270.713 146.253C270.713 146.253 281.749 111.288 277.15 72.7324" stroke="#1D1D1B"/>
<path d="M373.693 71.2819C373.693 71.2819 378.884 68.3828 374.348 49.4024C369.809 30.4199 363.946 14.1234 362.506 13.3848" stroke="#1D1D1B"/>
</svg>
