<svg width="54" height="54" viewBox="0 0 54 54" fill="none" xmlns="http://www.w3.org/2000/svg">
<path fill-rule="evenodd" clip-rule="evenodd" d="M27 52.502C41.3594 52.502 53 40.8614 53 26.502C53 12.1425 41.3594 0.501953 27 0.501953C12.6406 0.501953 1 12.1425 1 26.502C1 40.8614 12.6406 52.502 27 52.502Z" fill="white" stroke="black"/>
<path d="M24.8403 24.3421C24.8403 24.3421 22.5718 24.4533 21.7778 24.3421V28.0127C21.7778 28.3463 24.8403 28.0127 24.8403 28.3463V37.3537C24.8403 37.6873 28.9237 37.3537 28.9237 37.3537C28.9237 37.3537 29.0371 31.2376 28.9237 28.0127C29.8311 28.2351 32.2754 28.1128 32.3264 28.0127C32.3775 27.9126 32.5533 25.232 32.6667 24.3421L28.9237 24.343V21.6742C28.9237 20.3397 29.8311 20.0061 30.2848 20.0061H32.6667V16.6694C29.9445 16.336 28.2431 16.4199 26.5417 17.67C24.8403 18.92 24.7269 22.3405 24.8403 24.3421Z" fill="white" stroke="black" stroke-width="1.5" stroke-linejoin="round"/>
</svg>
