<svg width="767" height="379" viewBox="0 0 767 379" fill="none" xmlns="http://www.w3.org/2000/svg">
<path fill-rule="evenodd" clip-rule="evenodd" d="M727.821 30.5781C727.821 30.5781 756.515 127.882 754.505 141.949C752.495 156.021 648.345 95.1183 642.78 89.4164" fill="#FEFEFE"/>
<path d="M727.821 30.5781C727.821 30.5781 756.515 127.882 754.505 141.949C752.495 156.021 648.345 95.1183 642.78 89.4164" stroke="#1D1D1B"/>
<path fill-rule="evenodd" clip-rule="evenodd" d="M177.551 257.857C177.551 257.857 146.7 366.255 138.455 377.715C130.213 389.175 65.3363 281.984 63.0437 274.287" fill="#FEFEFE"/>
<path d="M178.368 254.832C178.368 254.832 147.542 365.163 139.302 376.827C131.067 388.492 66.2417 279.389 63.9509 271.554" stroke="#1D1D1B"/>
<path fill-rule="evenodd" clip-rule="evenodd" d="M552.132 151.463L545.761 291.883L439.622 204.885" fill="#FEFEFE"/>
<path d="M551.179 150.49L545.761 291.885L436.761 202.172" stroke="#1D1D1B"/>
<path fill-rule="evenodd" clip-rule="evenodd" d="M371.393 222.092C371.393 222.092 339.264 331.588 333.471 341.396C328.871 349.188 245.29 247.518 245.29 247.518" fill="#FEFEFE"/>
<path d="M370.971 221.678C370.971 221.678 338.905 332.259 333.123 342.164C328.531 350.033 244.159 246.056 244.159 246.056" stroke="#1D1D1B"/>
<path d="M767 1C767 1 613.419 114.109 535.509 159.289C435.379 217.353 281.182 240.78 281.182 240.78L8.19843 278.31L-115.05 292.894" stroke="#1D1D1B"/>
<path d="M138.323 376.928C138.323 376.928 142.496 381.073 152.237 370.149C161.978 359.224 188.42 264.544 189.811 254.832" stroke="#1D1D1B"/>
<path d="M380.507 219.725C380.507 219.725 342.62 335.162 340.846 337.034C335.018 343.187 332.833 342.575 332.833 342.575" stroke="#1D1D1B"/>
<path d="M546.412 293.836C546.412 293.836 568.687 223.344 559.405 145.615" stroke="#1D1D1B"/>
<path d="M754.269 142.692C754.269 142.692 764.746 136.847 755.591 98.5819C746.431 60.3123 734.596 27.4578 731.688 25.9688" stroke="#1D1D1B"/>
</svg>
